<mxfile host="Electron" modified="2023-08-22T14:33:00.910Z" agent="5.0 (Windows NT 10.0; Win64; x64) AppleWebKit/537.36 (KHTML, like Gecko) draw.io/20.3.0 Chrome/104.0.5112.114 Electron/20.1.3 Safari/537.36" etag="-wY0sdNfAlduMkx4EBqd" compressed="false" version="20.3.0" type="device">
  <diagram name="ND0002" id="1CP9VX86ncTdAmcYDIcw">
    <mxGraphModel dx="1408" dy="843" grid="1" gridSize="2" guides="1" tooltips="1" connect="1" arrows="1" fold="1" page="1" pageScale="1" pageWidth="1169" pageHeight="827" math="0" shadow="0">
      <root>
        <mxCell id="22vkG-h5v2N9dKBLQ-ZE-0" />
        <mxCell id="22vkG-h5v2N9dKBLQ-ZE-124" value="Connection" style="locked=1;" parent="22vkG-h5v2N9dKBLQ-ZE-0" />
        <object label="Connection" PipingConnector="Y" LabelConnector="N" SignalConnector="N" Direction="180" AuxiliaryConnector="N" id="22vkG-h5v2N9dKBLQ-ZE-125">
          <mxCell style="vsdxID=1407;fillColor=none;gradientColor=none;shape=stencil(rVFbDsIgEDwNnyQU4glqvcfGblsilmZBS28vZGMsxg9j/JvZmX1kR5g2TLCg0CpE8hdcbR8nYY5CaztPSDZmJEwnTDt4wpH8be6ZL1CcBV39vUxI3KdKh1YbswPTEzuBzlmiVGmKau9zUKM+jlJJQrJBko8QrZ+rrQ5oRJnXyMHBWElhRVx25ebnw/5zVvPFWRm83jxY5zilvf4eSy5xpKZ7AA==);strokeColor=#00FF00;strokeWidth=1;points=[[0.5,0.5,0,0,0]];labelBackgroundColor=none;rounded=0;html=1;whiteSpace=wrap;aspect=fixed;noLabel=1;snapToPoint=1;container=0;fontSize=16;" parent="22vkG-h5v2N9dKBLQ-ZE-124" vertex="1">
            <mxGeometry x="186" y="106" width="12" height="12" as="geometry" />
          </mxCell>
        </object>
        <object label="Connection" PipingConnector="Y" LabelConnector="N" SignalConnector="N" Direction="0" AuxiliaryConnector="N" id="j2nrvzxkZ3BnKDXGnb-E-3">
          <mxCell style="vsdxID=1407;fillColor=none;gradientColor=none;shape=stencil(rVFbDsIgEDwNnyQU4glqvcfGblsilmZBS28vZGMsxg9j/JvZmX1kR5g2TLCg0CpE8hdcbR8nYY5CaztPSDZmJEwnTDt4wpH8be6ZL1CcBV39vUxI3KdKh1YbswPTEzuBzlmiVGmKau9zUKM+jlJJQrJBko8QrZ+rrQ5oRJnXyMHBWElhRVx25ebnw/5zVvPFWRm83jxY5zilvf4eSy5xpKZ7AA==);strokeColor=#00FF00;strokeWidth=1;points=[[0.5,0.5,0,0,0]];labelBackgroundColor=none;rounded=0;html=1;whiteSpace=wrap;aspect=fixed;noLabel=1;snapToPoint=1;container=0;fontSize=16;fontFamily=Helvetica;" parent="22vkG-h5v2N9dKBLQ-ZE-124" vertex="1">
            <mxGeometry x="250" y="106" width="12" height="12" as="geometry" />
          </mxCell>
        </object>
        <mxCell id="22vkG-h5v2N9dKBLQ-ZE-135" value="Label" style="locked=1;" parent="22vkG-h5v2N9dKBLQ-ZE-0" />
        <object label="%LabelLines%&amp;nbsp; &amp;nbsp; &amp;nbsp; &amp;nbsp; &amp;nbsp; &amp;nbsp;%LabelIndex%" placeholders="1" LabelLines="1" LabelIndex="A" id="jyOudCda0Ud9WsIjt9Yr-0">
          <mxCell style="rounded=0;whiteSpace=wrap;html=1;fillColor=none;strokeColor=#FF0000;fontColor=#FF0000;fontSize=10;align=left;noLabel=0;rotation=-90;" parent="22vkG-h5v2N9dKBLQ-ZE-135" vertex="1">
            <mxGeometry x="128" y="102" width="80" height="16" as="geometry" />
          </mxCell>
        </object>
        <mxCell id="22vkG-h5v2N9dKBLQ-ZE-136" value="Origo" style="locked=1;" parent="22vkG-h5v2N9dKBLQ-ZE-0" />
        <object label="origo" id="22vkG-h5v2N9dKBLQ-ZE-137">
          <mxCell style="vsdxID=1407;fillColor=none;gradientColor=none;shape=stencil(rVFbDsIgEDwNnyQU4glqvcfGblsilmZBS28vZGMsxg9j/JvZmX1kR5g2TLCg0CpE8hdcbR8nYY5CaztPSDZmJEwnTDt4wpH8be6ZL1CcBV39vUxI3KdKh1YbswPTEzuBzlmiVGmKau9zUKM+jlJJQrJBko8QrZ+rrQ5oRJnXyMHBWElhRVx25ebnw/5zVvPFWRm83jxY5zilvf4eSy5xpKZ7AA==);strokeColor=#ff0000;strokeWidth=1;points=[[0.5,0.5,0,0,0]];labelBackgroundColor=none;rounded=0;html=1;whiteSpace=wrap;aspect=fixed;noLabel=1;snapToPoint=1;" parent="22vkG-h5v2N9dKBLQ-ZE-136" vertex="1">
            <mxGeometry x="188" y="108" width="7.874" height="7.87" as="geometry" />
          </mxCell>
        </object>
        <object label="Symbol" Width="4" Height="4" UoM="mm" id="22vkG-h5v2N9dKBLQ-ZE-138">
          <mxCell style="locked=1;" parent="22vkG-h5v2N9dKBLQ-ZE-0" />
        </object>
        <mxCell id="j2nrvzxkZ3BnKDXGnb-E-0" value="" style="endArrow=none;html=1;rounded=0;fontFamily=Helvetica;fontSize=16;" parent="22vkG-h5v2N9dKBLQ-ZE-138" edge="1">
          <mxGeometry width="50" height="50" relative="1" as="geometry">
            <mxPoint x="192" y="112" as="sourcePoint" />
            <mxPoint x="256" y="112" as="targetPoint" />
          </mxGeometry>
        </mxCell>
        <mxCell id="j2nrvzxkZ3BnKDXGnb-E-1" value="" style="endArrow=none;html=1;rounded=0;fontFamily=Helvetica;fontSize=16;" parent="22vkG-h5v2N9dKBLQ-ZE-138" edge="1">
          <mxGeometry width="50" height="50" relative="1" as="geometry">
            <mxPoint x="256" y="144" as="sourcePoint" />
            <mxPoint x="256" y="80" as="targetPoint" />
          </mxGeometry>
        </mxCell>
      </root>
    </mxGraphModel>
  </diagram>
</mxfile>
